 0
SECTION
 2
HEADER
 9
$ACADVER
 1
AC1009
 0
ENDSEC
 0
SECTION
 2
TABLES
 0
TABLE
 2
LTYPE
 70
1
 0
LTYPE
 2
CONTINUOUS
 70
64
 3
solid line
 72
65
 73
0
 40
0.0
 0
ENDTAB
 0
TABLE
 2
LAYER
 70
6
 0
LAYER
 2
0
 70
0
 62
7
 6
CONTINUOUS
 0
LAYER
 2
SIMMETRIA_1
 70
64
 62
155
 6
CONTINUOUS
 0
ENDTAB
 0
ENDSEC
 0
SECTION
 2
BLOCKS
 0
ENDSEC
 0
SECTION
 2
ENTITIES
 0
POLYLINE
 8
SIMMETRIA_1
 66
1
 10
0.0
 20
0.0
 30
0.0
 70
64
 71
322
 72
323
 0
VERTEX
 8
SIMMETRIA_1
 10
0.2623
 20
2.4763
 30
0.689
 70
192
 0
VERTEX
 8
SIMMETRIA_1
 10
0.3591
 20
2.7184
 30
0.689
 70
192
 0
VERTEX
 8
SIMMETRIA_1
 10
0.7228
 20
-0.9773
 30
-0.7228
 70
192
 0
VERTEX
 8
SIMMETRIA_1
 10
0.7228
 20
-0.9773
 30
0.7228
 70
192
 0
VERTEX
 8
SIMMETRIA_1
 10
0.7427
 20
-0.8403
 30
-0.7427
 70
192
 0
VERTEX
 8
SIMMETRIA_1
 10
0.7427
 20
-0.8403
 30
0.7427
 70
192
 0
VERTEX
 8
SIMMETRIA_1
 10
0.7427
 20
-0.5025
 30
-0.7427
 70
192
 0
VERTEX
 8
SIMMETRIA_1
 10
0.7427
 20
-0.5025
 30
0.7427
 70
192
 0
VERTEX
 8
SIMMETRIA_1
 10
0.5265
 20
7.1474
 30
-0.5265
 70
192
 0
VERTEX
 8
SIMMETRIA_1
 10
0.3944
 20
-0.6898
 30
0.3944
 70
192
 0
VERTEX
 8
SIMMETRIA_1
 10
0.702
 20
7.1474
 30
0
 70
192
 0
VERTEX
 8
SIMMETRIA_1
 10
0.3944
 20
-0.6898
 30
-0.3944
 70
192
 0
VERTEX
 8
SIMMETRIA_1
 10
0.4505
 20
6.956
 30
0.4505
 70
192
 0
VERTEX
 8
SIMMETRIA_1
 10
0
 20
6.3277
 30
-0.6875
 70
192
 0
VERTEX
 8
SIMMETRIA_1
 10
0.4505
 20
6.956
 30
-0.4505
 70
192
 0
VERTEX
 8
SIMMETRIA_1
 10
0
 20
4.8236
 30
-0.702
 70
192
 0
VERTEX
 8
SIMMETRIA_1
 10
0.6875
 20
7.0175
 30
0
 70
192
 0
VERTEX
 8
SIMMETRIA_1
 10
0.5597
 20
-0.9501
 30
0.5597
 70
192
 0
VERTEX
 8
SIMMETRIA_1
 10
0.5265
 20
7.1474
 30
0.5265
 70
192
 0
VERTEX
 8
SIMMETRIA_1
 10
0.5597
 20
-0.9501
 30
-0.5597
 70
192
 0
VERTEX
 8
SIMMETRIA_1
 10
0.7221
 20
0.8376
 30
-0.7221
 70
192
 0
VERTEX
 8
SIMMETRIA_1
 10
0.7221
 20
0.8376
 30
0.7221
 70
192
 0
VERTEX
 8
SIMMETRIA_1
 10
0.2784
 20
3.0089
 30
0.689
 70
192
 0
VERTEX
 8
SIMMETRIA_1
 10
0
 20
-0.8006
 30
-0.71
 70
192
 0
VERTEX
 8
SIMMETRIA_1
 10
0.4505
 20
1.7049
 30
-0.4505
 70
192
 0
VERTEX
 8
SIMMETRIA_1
 10
0.5325
 20
-0.8006
 30
-0.5325
 70
192
 0
VERTEX
 8
SIMMETRIA_1
 10
0.4505
 20
1.7961
 30
0.4505
 70
192
 0
VERTEX
 8
SIMMETRIA_1
 10
0.71
 20
-0.8006
 30
0
 70
192
 0
VERTEX
 8
SIMMETRIA_1
 10
0.4505
 20
1.7961
 30
-0.4505
 70
192
 0
VERTEX
 8
SIMMETRIA_1
 10
0
 20
7.1474
 30
0.702
 70
192
 0
VERTEX
 8
SIMMETRIA_1
 10
0
 20
6.3277
 30
0.6875
 70
192
 0
VERTEX
 8
SIMMETRIA_1
 10
0
 20
7.0175
 30
0.6875
 70
192
 0
VERTEX
 8
SIMMETRIA_1
 10
0
 20
4.8236
 30
0.702
 70
192
 0
VERTEX
 8
SIMMETRIA_1
 10
0.4505
 20
6.8472
 30
-0.4505
 70
192
 0
VERTEX
 8
SIMMETRIA_1
 10
0.4505
 20
1.7049
 30
0.4505
 70
192
 0
VERTEX
 8
SIMMETRIA_1
 10
0.4505
 20
6.8472
 30
0.4505
 70
192
 0
VERTEX
 8
SIMMETRIA_1
 10
0.5325
 20
-0.8006
 30
0.5325
 70
192
 0
VERTEX
 8
SIMMETRIA_1
 10
0
 20
-0.8006
 30
0.71
 70
192
 0
VERTEX
 8
SIMMETRIA_1
 10
0.6875
 20
6.3277
 30
0
 70
192
 0
VERTEX
 8
SIMMETRIA_1
 10
0.5265
 20
4.8236
 30
0.5265
 70
192
 0
VERTEX
 8
SIMMETRIA_1
 10
0.6988
 20
-0.8029
 30
-0.6988
 70
192
 0
VERTEX
 8
SIMMETRIA_1
 10
0.6988
 20
-0.8029
 30
0.6988
 70
192
 0
VERTEX
 8
SIMMETRIA_1
 10
0.6988
 20
-0.7317
 30
-0.6988
 70
192
 0
VERTEX
 8
SIMMETRIA_1
 10
0.6988
 20
-0.7317
 30
0.6988
 70
192
 0
VERTEX
 8
SIMMETRIA_1
 10
0
 20
-0.9501
 30
-0.7462
 70
192
 0
VERTEX
 8
SIMMETRIA_1
 10
0
 20
-1
 30
-0.855
 70
192
 0
VERTEX
 8
SIMMETRIA_1
 10
0.7462
 20
-0.9501
 30
0
 70
192
 0
VERTEX
 8
SIMMETRIA_1
 10
0.6412
 20
-1
 30
-0.6412
 70
192
 0
VERTEX
 8
SIMMETRIA_1
 10
0.5544
 20
1.3991
 30
-0.5544
 70
192
 0
VERTEX
 8
SIMMETRIA_1
 10
0.5544
 20
1.3991
 30
0.5544
 70
192
 0
VERTEX
 8
SIMMETRIA_1
 10
0.855
 20
-1
 30
0
 70
192
 0
VERTEX
 8
SIMMETRIA_1
 10
0
 20
-0.9501
 30
0.7462
 70
192
 0
VERTEX
 8
SIMMETRIA_1
 10
0.5156
 20
1.6556
 30
-0.5156
 70
192
 0
VERTEX
 8
SIMMETRIA_1
 10
0.5156
 20
1.6556
 30
0.5156
 70
192
 0
VERTEX
 8
SIMMETRIA_1
 10
0.6412
 20
-1
 30
0.6412
 70
192
 0
VERTEX
 8
SIMMETRIA_1
 10
0
 20
-1
 30
0.855
 70
192
 0
VERTEX
 8
SIMMETRIA_1
 10
0.5156
 20
1.9371
 30
-0.5156
 70
192
 0
VERTEX
 8
SIMMETRIA_1
 10
0.5156
 20
1.9371
 30
0.5156
 70
192
 0
VERTEX
 8
SIMMETRIA_1
 10
0
 20
6.8291
 30
0.6441
 70
192
 0
VERTEX
 8
SIMMETRIA_1
 10
0
 20
6.9741
 30
0.6441
 70
192
 0
VERTEX
 8
SIMMETRIA_1
 10
0.5265
 20
3.1936
 30
-0.5265
 70
192
 0
VERTEX
 8
SIMMETRIA_1
 10
0.5265
 20
3.1936
 30
0.5265
 70
192
 0
VERTEX
 8
SIMMETRIA_1
 10
0.5265
 20
4.8236
 30
-0.5265
 70
192
 0
VERTEX
 8
SIMMETRIA_1
 10
0.702
 20
4.8236
 30
0
 70
192
 0
VERTEX
 8
SIMMETRIA_1
 10
0.5156
 20
7.0175
 30
-0.5156
 70
192
 0
VERTEX
 8
SIMMETRIA_1
 10
0.5156
 20
7.0175
 30
0.5156
 70
192
 0
VERTEX
 8
SIMMETRIA_1
 10
0
 20
3.1936
 30
-0.702
 70
192
 0
VERTEX
 8
SIMMETRIA_1
 10
0
 20
6.8291
 30
-0.6441
 70
192
 0
VERTEX
 8
SIMMETRIA_1
 10
0.39
 20
7.2437
 30
-0.39
 70
192
 0
VERTEX
 8
SIMMETRIA_1
 10
0.39
 20
7.2437
 30
0.39
 70
192
 0
VERTEX
 8
SIMMETRIA_1
 10
0
 20
1.9371
 30
-0.6875
 70
192
 0
VERTEX
 8
SIMMETRIA_1
 10
0
 20
2.3147
 30
-0.702
 70
192
 0
VERTEX
 8
SIMMETRIA_1
 10
0.5156
 20
6.3277
 30
0.5156
 70
192
 0
VERTEX
 8
SIMMETRIA_1
 10
0.5156
 20
6.3277
 30
-0.5156
 70
192
 0
VERTEX
 8
SIMMETRIA_1
 10
0
 20
7.1474
 30
-0.702
 70
192
 0
VERTEX
 8
SIMMETRIA_1
 10
0
 20
6.9741
 30
-0.6441
 70
192
 0
VERTEX
 8
SIMMETRIA_1
 10
0
 20
0.1417
 30
-1
 70
192
 0
VERTEX
 8
SIMMETRIA_1
 10
0.4831
 20
6.8291
 30
0.4831
 70
192
 0
VERTEX
 8
SIMMETRIA_1
 10
0
 20
-0.5025
 30
-0.9903
 70
192
 0
VERTEX
 8
SIMMETRIA_1
 10
0.75
 20
0.1417
 30
-0.75
 70
192
 0
VERTEX
 8
SIMMETRIA_1
 10
0
 20
0.8376
 30
-0.9628
 70
192
 0
VERTEX
 8
SIMMETRIA_1
 10
0.4831
 20
6.8291
 30
-0.4831
 70
192
 0
VERTEX
 8
SIMMETRIA_1
 10
0.6441
 20
6.8291
 30
0
 70
192
 0
VERTEX
 8
SIMMETRIA_1
 10
0.4831
 20
6.9741
 30
-0.4831
 70
192
 0
VERTEX
 8
SIMMETRIA_1
 10
0.4831
 20
6.9741
 30
0.4831
 70
192
 0
VERTEX
 8
SIMMETRIA_1
 10
1
 20
0.1417
 30
0
 70
192
 0
VERTEX
 8
SIMMETRIA_1
 10
0.9903
 20
-0.5025
 30
0
 70
192
 0
VERTEX
 8
SIMMETRIA_1
 10
0.75
 20
0.1417
 30
0.75
 70
192
 0
VERTEX
 8
SIMMETRIA_1
 10
0.9628
 20
0.8376
 30
0
 70
192
 0
VERTEX
 8
SIMMETRIA_1
 10
0
 20
0.1417
 30
1
 70
192
 0
VERTEX
 8
SIMMETRIA_1
 10
0
 20
0.8376
 30
0.9628
 70
192
 0
VERTEX
 8
SIMMETRIA_1
 10
0
 20
-0.5025
 30
0.9903
 70
192
 0
VERTEX
 8
SIMMETRIA_1
 10
0
 20
-0.6011
 30
0
 70
192
 0
VERTEX
 8
SIMMETRIA_1
 10
0
 20
7.0175
 30
-0.6875
 70
192
 0
VERTEX
 8
SIMMETRIA_1
 10
0
 20
-0.651
 30
0.5325
 70
192
 0
VERTEX
 8
SIMMETRIA_1
 10
0.5325
 20
-0.651
 30
0
 70
192
 0
VERTEX
 8
SIMMETRIA_1
 10
0
 20
-0.651
 30
-0.5325
 70
192
 0
VERTEX
 8
SIMMETRIA_1
 10
1
 20
-0.909
 30
0
 70
192
 0
VERTEX
 8
SIMMETRIA_1
 10
0.9637
 20
-0.9773
 30
0
 70
192
 0
VERTEX
 8
SIMMETRIA_1
 10
0.75
 20
-0.909
 30
0.75
 70
192
 0
VERTEX
 8
SIMMETRIA_1
 10
0.9903
 20
-0.8403
 30
0
 70
192
 0
VERTEX
 8
SIMMETRIA_1
 10
0.75
 20
-0.909
 30
-0.75
 70
192
 0
VERTEX
 8
SIMMETRIA_1
 10
0.922
 20
-0.7673
 30
0
 70
192
 0
VERTEX
 8
SIMMETRIA_1
 10
0.9318
 20
-0.8029
 30
0
 70
192
 0
VERTEX
 8
SIMMETRIA_1
 10
0.6915
 20
-0.7673
 30
0.6915
 70
192
 0
VERTEX
 8
SIMMETRIA_1
 10
0.9318
 20
-0.7317
 30
0
 70
192
 0
VERTEX
 8
SIMMETRIA_1
 10
0.6915
 20
-0.7673
 30
-0.6915
 70
192
 0
VERTEX
 8
SIMMETRIA_1
 10
0
 20
7.3207
 30
0
 70
192
 0
VERTEX
 8
SIMMETRIA_1
 10
0.5265
 20
7.2774
 30
0
 70
192
 0
VERTEX
 8
SIMMETRIA_1
 10
0
 20
7.2774
 30
0.5265
 70
192
 0
VERTEX
 8
SIMMETRIA_1
 10
0
 20
3.1936
 30
0.689
 70
192
 0
VERTEX
 8
SIMMETRIA_1
 10
0
 20
7.2774
 30
-0.5265
 70
192
 0
VERTEX
 8
SIMMETRIA_1
 10
0.6441
 20
6.9741
 30
0
 70
192
 0
VERTEX
 8
SIMMETRIA_1
 10
0
 20
1.8113
 30
-0.6441
 70
192
 0
VERTEX
 8
SIMMETRIA_1
 10
0
 20
1.6897
 30
-0.6441
 70
192
 0
VERTEX
 8
SIMMETRIA_1
 10
0.5862
 20
6.9016
 30
0
 70
192
 0
VERTEX
 8
SIMMETRIA_1
 10
0
 20
1.9371
 30
0.6875
 70
192
 0
VERTEX
 8
SIMMETRIA_1
 10
0
 20
2.3147
 30
0.689
 70
192
 0
VERTEX
 8
SIMMETRIA_1
 10
0
 20
1.8113
 30
0.6441
 70
192
 0
VERTEX
 8
SIMMETRIA_1
 10
0.702
 20
3.1936
 30
0
 70
192
 0
VERTEX
 8
SIMMETRIA_1
 10
0
 20
1.6897
 30
0.6441
 70
192
 0
VERTEX
 8
SIMMETRIA_1
 10
0.4831
 20
1.8113
 30
-0.4831
 70
192
 0
VERTEX
 8
SIMMETRIA_1
 10
0
 20
-0.909
 30
1
 70
192
 0
VERTEX
 8
SIMMETRIA_1
 10
0
 20
-0.8403
 30
0.9903
 70
192
 0
VERTEX
 8
SIMMETRIA_1
 10
0
 20
-0.9773
 30
0.9637
 70
192
 0
VERTEX
 8
SIMMETRIA_1
 10
0
 20
-0.7673
 30
0.922
 70
192
 0
VERTEX
 8
SIMMETRIA_1
 10
0
 20
-0.7317
 30
0.9318
 70
192
 0
VERTEX
 8
SIMMETRIA_1
 10
0
 20
-0.8029
 30
0.9318
 70
192
 0
VERTEX
 8
SIMMETRIA_1
 10
0
 20
-0.7673
 30
-0.922
 70
192
 0
VERTEX
 8
SIMMETRIA_1
 10
0
 20
-0.8029
 30
-0.9318
 70
192
 0
VERTEX
 8
SIMMETRIA_1
 10
0
 20
-0.7317
 30
-0.9318
 70
192
 0
VERTEX
 8
SIMMETRIA_1
 10
0
 20
-0.909
 30
-1
 70
192
 0
VERTEX
 8
SIMMETRIA_1
 10
0
 20
-0.9773
 30
-0.9637
 70
192
 0
VERTEX
 8
SIMMETRIA_1
 10
0
 20
-0.8403
 30
-0.9903
 70
192
 0
VERTEX
 8
SIMMETRIA_1
 10
0.961
 20
-0.8161
 30
0
 70
192
 0
VERTEX
 8
SIMMETRIA_1
 10
0.7207
 20
-0.8161
 30
-0.7207
 70
192
 0
VERTEX
 8
SIMMETRIA_1
 10
0.7207
 20
-0.8161
 30
0.7207
 70
192
 0
VERTEX
 8
SIMMETRIA_1
 10
0.961
 20
-0.7185
 30
0
 70
192
 0
VERTEX
 8
SIMMETRIA_1
 10
0.7207
 20
-0.7185
 30
0.7207
 70
192
 0
VERTEX
 8
SIMMETRIA_1
 10
0.7207
 20
-0.7185
 30
-0.7207
 70
192
 0
VERTEX
 8
SIMMETRIA_1
 10
0.4831
 20
1.8113
 30
0.4831
 70
192
 0
VERTEX
 8
SIMMETRIA_1
 10
0.6441
 20
1.8113
 30
0
 70
192
 0
VERTEX
 8
SIMMETRIA_1
 10
0.4831
 20
1.6897
 30
0.4831
 70
192
 0
VERTEX
 8
SIMMETRIA_1
 10
0.4831
 20
1.6897
 30
-0.4831
 70
192
 0
VERTEX
 8
SIMMETRIA_1
 10
0.6441
 20
1.6897
 30
0
 70
192
 0
VERTEX
 8
SIMMETRIA_1
 10
0
 20
6.8472
 30
0.6006
 70
192
 0
VERTEX
 8
SIMMETRIA_1
 10
0
 20
-0.7185
 30
0.961
 70
192
 0
VERTEX
 8
SIMMETRIA_1
 10
0
 20
-0.8161
 30
0.961
 70
192
 0
VERTEX
 8
SIMMETRIA_1
 10
0
 20
-0.8161
 30
-0.961
 70
192
 0
VERTEX
 8
SIMMETRIA_1
 10
0
 20
-0.7185
 30
-0.961
 70
192
 0
VERTEX
 8
SIMMETRIA_1
 10
0.851
 20
1.2086
 30
0
 70
192
 0
VERTEX
 8
SIMMETRIA_1
 10
0.6383
 20
1.2086
 30
-0.6383
 70
192
 0
VERTEX
 8
SIMMETRIA_1
 10
0.6383
 20
1.2086
 30
0.6383
 70
192
 0
VERTEX
 8
SIMMETRIA_1
 10
0.7393
 20
1.3991
 30
0
 70
192
 0
VERTEX
 8
SIMMETRIA_1
 10
0
 20
1.2086
 30
0.851
 70
192
 0
VERTEX
 8
SIMMETRIA_1
 10
0
 20
6.956
 30
0.6006
 70
192
 0
VERTEX
 8
SIMMETRIA_1
 10
0
 20
1.3991
 30
0.7393
 70
192
 0
VERTEX
 8
SIMMETRIA_1
 10
0
 20
6.9016
 30
0.5862
 70
192
 0
VERTEX
 8
SIMMETRIA_1
 10
0.5265
 20
2.3147
 30
0.5265
 70
192
 0
VERTEX
 8
SIMMETRIA_1
 10
0
 20
6.8472
 30
-0.6006
 70
192
 0
VERTEX
 8
SIMMETRIA_1
 10
0
 20
1.2086
 30
-0.851
 70
192
 0
VERTEX
 8
SIMMETRIA_1
 10
0
 20
1.3991
 30
-0.7393
 70
192
 0
VERTEX
 8
SIMMETRIA_1
 10
0.702
 20
1.5535
 30
0
 70
192
 0
VERTEX
 8
SIMMETRIA_1
 10
0.5265
 20
1.5535
 30
-0.5265
 70
192
 0
VERTEX
 8
SIMMETRIA_1
 10
0.5265
 20
1.5535
 30
0.5265
 70
192
 0
VERTEX
 8
SIMMETRIA_1
 10
0.6875
 20
1.6556
 30
0
 70
192
 0
VERTEX
 8
SIMMETRIA_1
 10
0
 20
1.5535
 30
0.702
 70
192
 0
VERTEX
 8
SIMMETRIA_1
 10
0.6875
 20
1.9371
 30
0
 70
192
 0
VERTEX
 8
SIMMETRIA_1
 10
0
 20
1.6556
 30
0.6875
 70
192
 0
VERTEX
 8
SIMMETRIA_1
 10
0
 20
6.956
 30
-0.6006
 70
192
 0
VERTEX
 8
SIMMETRIA_1
 10
0
 20
6.9016
 30
-0.5862
 70
192
 0
VERTEX
 8
SIMMETRIA_1
 10
0.6006
 20
6.8472
 30
0
 70
192
 0
VERTEX
 8
SIMMETRIA_1
 10
0
 20
1.5535
 30
-0.702
 70
192
 0
VERTEX
 8
SIMMETRIA_1
 10
0
 20
1.6556
 30
-0.6875
 70
192
 0
VERTEX
 8
SIMMETRIA_1
 10
0.5862
 20
1.7505
 30
0
 70
192
 0
VERTEX
 8
SIMMETRIA_1
 10
0.4396
 20
1.7505
 30
-0.4396
 70
192
 0
VERTEX
 8
SIMMETRIA_1
 10
0.6006
 20
1.7049
 30
0
 70
192
 0
VERTEX
 8
SIMMETRIA_1
 10
0.4396
 20
1.7505
 30
0.4396
 70
192
 0
VERTEX
 8
SIMMETRIA_1
 10
0.6006
 20
1.7961
 30
0
 70
192
 0
VERTEX
 8
SIMMETRIA_1
 10
0
 20
1.7505
 30
0.5862
 70
192
 0
VERTEX
 8
SIMMETRIA_1
 10
0
 20
1.7049
 30
0.6006
 70
192
 0
VERTEX
 8
SIMMETRIA_1
 10
0.5265
 20
2.3147
 30
-0.5265
 70
192
 0
VERTEX
 8
SIMMETRIA_1
 10
0
 20
1.7961
 30
0.6006
 70
192
 0
VERTEX
 8
SIMMETRIA_1
 10
0.4396
 20
6.9016
 30
-0.4396
 70
192
 0
VERTEX
 8
SIMMETRIA_1
 10
0.6006
 20
6.956
 30
0
 70
192
 0
VERTEX
 8
SIMMETRIA_1
 10
0.702
 20
2.3147
 30
0
 70
192
 0
VERTEX
 8
SIMMETRIA_1
 10
0.4396
 20
6.9016
 30
0.4396
 70
192
 0
VERTEX
 8
SIMMETRIA_1
 10
0
 20
1.7505
 30
-0.5862
 70
192
 0
VERTEX
 8
SIMMETRIA_1
 10
0
 20
1.7049
 30
-0.6006
 70
192
 0
VERTEX
 8
SIMMETRIA_1
 10
0
 20
1.7961
 30
-0.6006
 70
192
 0
VERTEX
 8
SIMMETRIA_1
 10
-0.2623
 20
2.4763
 30
0.689
 70
192
 0
VERTEX
 8
SIMMETRIA_1
 10
-0.3591
 20
2.7184
 30
0.689
 70
192
 0
VERTEX
 8
SIMMETRIA_1
 10
-0.7228
 20
-0.9773
 30
-0.7228
 70
192
 0
VERTEX
 8
SIMMETRIA_1
 10
-0.7228
 20
-0.9773
 30
0.7228
 70
192
 0
VERTEX
 8
SIMMETRIA_1
 10
-0.7427
 20
-0.8403
 30
-0.7427
 70
192
 0
VERTEX
 8
SIMMETRIA_1
 10
-0.7427
 20
-0.8403
 30
0.7427
 70
192
 0
VERTEX
 8
SIMMETRIA_1
 10
-0.7427
 20
-0.5025
 30
-0.7427
 70
192
 0
VERTEX
 8
SIMMETRIA_1
 10
-0.7427
 20
-0.5025
 30
0.7427
 70
192
 0
VERTEX
 8
SIMMETRIA_1
 10
-0.5265
 20
7.1474
 30
-0.5265
 70
192
 0
VERTEX
 8
SIMMETRIA_1
 10
-0.3944
 20
-0.6898
 30
0.3944
 70
192
 0
VERTEX
 8
SIMMETRIA_1
 10
-0.702
 20
7.1474
 30
0
 70
192
 0
VERTEX
 8
SIMMETRIA_1
 10
-0.3944
 20
-0.6898
 30
-0.3944
 70
192
 0
VERTEX
 8
SIMMETRIA_1
 10
-0.4505
 20
6.956
 30
0.4505
 70
192
 0
VERTEX
 8
SIMMETRIA_1
 10
-0.4505
 20
6.956
 30
-0.4505
 70
192
 0
VERTEX
 8
SIMMETRIA_1
 10
-0.6875
 20
7.0175
 30
0
 70
192
 0
VERTEX
 8
SIMMETRIA_1
 10
-0.5597
 20
-0.9501
 30
0.5597
 70
192
 0
VERTEX
 8
SIMMETRIA_1
 10
-0.5265
 20
7.1474
 30
0.5265
 70
192
 0
VERTEX
 8
SIMMETRIA_1
 10
-0.5597
 20
-0.9501
 30
-0.5597
 70
192
 0
VERTEX
 8
SIMMETRIA_1
 10
-0.7221
 20
0.8376
 30
-0.7221
 70
192
 0
VERTEX
 8
SIMMETRIA_1
 10
-0.7221
 20
0.8376
 30
0.7221
 70
192
 0
VERTEX
 8
SIMMETRIA_1
 10
-0.2784
 20
3.0089
 30
0.689
 70
192
 0
VERTEX
 8
SIMMETRIA_1
 10
-0.4505
 20
1.7049
 30
-0.4505
 70
192
 0
VERTEX
 8
SIMMETRIA_1
 10
-0.5325
 20
-0.8006
 30
-0.5325
 70
192
 0
VERTEX
 8
SIMMETRIA_1
 10
-0.4505
 20
1.7961
 30
0.4505
 70
192
 0
VERTEX
 8
SIMMETRIA_1
 10
-0.71
 20
-0.8006
 30
0
 70
192
 0
VERTEX
 8
SIMMETRIA_1
 10
-0.4505
 20
1.7961
 30
-0.4505
 70
192
 0
VERTEX
 8
SIMMETRIA_1
 10
-0.4505
 20
6.8472
 30
-0.4505
 70
192
 0
VERTEX
 8
SIMMETRIA_1
 10
-0.4505
 20
1.7049
 30
0.4505
 70
192
 0
VERTEX
 8
SIMMETRIA_1
 10
-0.4505
 20
6.8472
 30
0.4505
 70
192
 0
VERTEX
 8
SIMMETRIA_1
 10
-0.5325
 20
-0.8006
 30
0.5325
 70
192
 0
VERTEX
 8
SIMMETRIA_1
 10
-0.6875
 20
6.3277
 30
0
 70
192
 0
VERTEX
 8
SIMMETRIA_1
 10
-0.5265
 20
4.8236
 30
0.5265
 70
192
 0
VERTEX
 8
SIMMETRIA_1
 10
-0.6988
 20
-0.8029
 30
-0.6988
 70
192
 0
VERTEX
 8
SIMMETRIA_1
 10
-0.6988
 20
-0.8029
 30
0.6988
 70
192
 0
VERTEX
 8
SIMMETRIA_1
 10
-0.6988
 20
-0.7317
 30
-0.6988
 70
192
 0
VERTEX
 8
SIMMETRIA_1
 10
-0.6988
 20
-0.7317
 30
0.6988
 70
192
 0
VERTEX
 8
SIMMETRIA_1
 10
-0.7462
 20
-0.9501
 30
0
 70
192
 0
VERTEX
 8
SIMMETRIA_1
 10
-0.6412
 20
-1
 30
-0.6412
 70
192
 0
VERTEX
 8
SIMMETRIA_1
 10
-0.5544
 20
1.3991
 30
-0.5544
 70
192
 0
VERTEX
 8
SIMMETRIA_1
 10
-0.5544
 20
1.3991
 30
0.5544
 70
192
 0
VERTEX
 8
SIMMETRIA_1
 10
-0.855
 20
-1
 30
0
 70
192
 0
VERTEX
 8
SIMMETRIA_1
 10
-0.5156
 20
1.6556
 30
-0.5156
 70
192
 0
VERTEX
 8
SIMMETRIA_1
 10
-0.5156
 20
1.6556
 30
0.5156
 70
192
 0
VERTEX
 8
SIMMETRIA_1
 10
-0.6412
 20
-1
 30
0.6412
 70
192
 0
VERTEX
 8
SIMMETRIA_1
 10
-0.5156
 20
1.9371
 30
-0.5156
 70
192
 0
VERTEX
 8
SIMMETRIA_1
 10
-0.5156
 20
1.9371
 30
0.5156
 70
192
 0
VERTEX
 8
SIMMETRIA_1
 10
-0.5265
 20
3.1936
 30
-0.5265
 70
192
 0
VERTEX
 8
SIMMETRIA_1
 10
-0.5265
 20
3.1936
 30
0.5265
 70
192
 0
VERTEX
 8
SIMMETRIA_1
 10
-0.5265
 20
4.8236
 30
-0.5265
 70
192
 0
VERTEX
 8
SIMMETRIA_1
 10
-0.702
 20
4.8236
 30
0
 70
192
 0
VERTEX
 8
SIMMETRIA_1
 10
-0.5156
 20
7.0175
 30
-0.5156
 70
192
 0
VERTEX
 8
SIMMETRIA_1
 10
-0.5156
 20
7.0175
 30
0.5156
 70
192
 0
VERTEX
 8
SIMMETRIA_1
 10
-0.39
 20
7.2437
 30
-0.39
 70
192
 0
VERTEX
 8
SIMMETRIA_1
 10
-0.39
 20
7.2437
 30
0.39
 70
192
 0
VERTEX
 8
SIMMETRIA_1
 10
-0.5156
 20
6.3277
 30
0.5156
 70
192
 0
VERTEX
 8
SIMMETRIA_1
 10
-0.5156
 20
6.3277
 30
-0.5156
 70
192
 0
VERTEX
 8
SIMMETRIA_1
 10
-0.4831
 20
6.8291
 30
0.4831
 70
192
 0
VERTEX
 8
SIMMETRIA_1
 10
-0.75
 20
0.1417
 30
-0.75
 70
192
 0
VERTEX
 8
SIMMETRIA_1
 10
-0.4831
 20
6.8291
 30
-0.4831
 70
192
 0
VERTEX
 8
SIMMETRIA_1
 10
-0.6441
 20
6.8291
 30
0
 70
192
 0
VERTEX
 8
SIMMETRIA_1
 10
-0.4831
 20
6.9741
 30
-0.4831
 70
192
 0
VERTEX
 8
SIMMETRIA_1
 10
-0.4831
 20
6.9741
 30
0.4831
 70
192
 0
VERTEX
 8
SIMMETRIA_1
 10
-1
 20
0.1417
 30
0
 70
192
 0
VERTEX
 8
SIMMETRIA_1
 10
-0.9903
 20
-0.5025
 30
0
 70
192
 0
VERTEX
 8
SIMMETRIA_1
 10
-0.75
 20
0.1417
 30
0.75
 70
192
 0
VERTEX
 8
SIMMETRIA_1
 10
-0.9628
 20
0.8376
 30
0
 70
192
 0
VERTEX
 8
SIMMETRIA_1
 10
-0.5325
 20
-0.651
 30
0
 70
192
 0
VERTEX
 8
SIMMETRIA_1
 10
-1
 20
-0.909
 30
0
 70
192
 0
VERTEX
 8
SIMMETRIA_1
 10
-0.9637
 20
-0.9773
 30
0
 70
192
 0
VERTEX
 8
SIMMETRIA_1
 10
-0.75
 20
-0.909
 30
0.75
 70
192
 0
VERTEX
 8
SIMMETRIA_1
 10
-0.9903
 20
-0.8403
 30
0
 70
192
 0
VERTEX
 8
SIMMETRIA_1
 10
-0.75
 20
-0.909
 30
-0.75
 70
192
 0
VERTEX
 8
SIMMETRIA_1
 10
-0.922
 20
-0.7673
 30
0
 70
192
 0
VERTEX
 8
SIMMETRIA_1
 10
-0.9318
 20
-0.8029
 30
0
 70
192
 0
VERTEX
 8
SIMMETRIA_1
 10
-0.6915
 20
-0.7673
 30
0.6915
 70
192
 0
VERTEX
 8
SIMMETRIA_1
 10
-0.9318
 20
-0.7317
 30
0
 70
192
 0
VERTEX
 8
SIMMETRIA_1
 10
-0.6915
 20
-0.7673
 30
-0.6915
 70
192
 0
VERTEX
 8
SIMMETRIA_1
 10
-0.5265
 20
7.2774
 30
0
 70
192
 0
VERTEX
 8
SIMMETRIA_1
 10
-0.6441
 20
6.9741
 30
0
 70
192
 0
VERTEX
 8
SIMMETRIA_1
 10
-0.5862
 20
6.9016
 30
0
 70
192
 0
VERTEX
 8
SIMMETRIA_1
 10
-0.702
 20
3.1936
 30
0
 70
192
 0
VERTEX
 8
SIMMETRIA_1
 10
-0.4831
 20
1.8113
 30
-0.4831
 70
192
 0
VERTEX
 8
SIMMETRIA_1
 10
-0.961
 20
-0.8161
 30
0
 70
192
 0
VERTEX
 8
SIMMETRIA_1
 10
-0.7207
 20
-0.8161
 30
-0.7207
 70
192
 0
VERTEX
 8
SIMMETRIA_1
 10
-0.7207
 20
-0.8161
 30
0.7207
 70
192
 0
VERTEX
 8
SIMMETRIA_1
 10
-0.961
 20
-0.7185
 30
0
 70
192
 0
VERTEX
 8
SIMMETRIA_1
 10
-0.7207
 20
-0.7185
 30
0.7207
 70
192
 0
VERTEX
 8
SIMMETRIA_1
 10
-0.7207
 20
-0.7185
 30
-0.7207
 70
192
 0
VERTEX
 8
SIMMETRIA_1
 10
-0.4831
 20
1.8113
 30
0.4831
 70
192
 0
VERTEX
 8
SIMMETRIA_1
 10
-0.6441
 20
1.8113
 30
0
 70
192
 0
VERTEX
 8
SIMMETRIA_1
 10
-0.4831
 20
1.6897
 30
0.4831
 70
192
 0
VERTEX
 8
SIMMETRIA_1
 10
-0.4831
 20
1.6897
 30
-0.4831
 70
192
 0
VERTEX
 8
SIMMETRIA_1
 10
-0.6441
 20
1.6897
 30
0
 70
192
 0
VERTEX
 8
SIMMETRIA_1
 10
-0.851
 20
1.2086
 30
0
 70
192
 0
VERTEX
 8
SIMMETRIA_1
 10
-0.6383
 20
1.2086
 30
-0.6383
 70
192
 0
VERTEX
 8
SIMMETRIA_1
 10
-0.6383
 20
1.2086
 30
0.6383
 70
192
 0
VERTEX
 8
SIMMETRIA_1
 10
-0.7393
 20
1.3991
 30
0
 70
192
 0
VERTEX
 8
SIMMETRIA_1
 10
-0.5265
 20
2.3147
 30
0.5265
 70
192
 0
VERTEX
 8
SIMMETRIA_1
 10
-0.702
 20
1.5535
 30
0
 70
192
 0
VERTEX
 8
SIMMETRIA_1
 10
-0.5265
 20
1.5535
 30
-0.5265
 70
192
 0
VERTEX
 8
SIMMETRIA_1
 10
-0.5265
 20
1.5535
 30
0.5265
 70
192
 0
VERTEX
 8
SIMMETRIA_1
 10
-0.6875
 20
1.6556
 30
0
 70
192
 0
VERTEX
 8
SIMMETRIA_1
 10
-0.6875
 20
1.9371
 30
0
 70
192
 0
VERTEX
 8
SIMMETRIA_1
 10
-0.6006
 20
6.8472
 30
0
 70
192
 0
VERTEX
 8
SIMMETRIA_1
 10
-0.5862
 20
1.7505
 30
0
 70
192
 0
VERTEX
 8
SIMMETRIA_1
 10
-0.4396
 20
1.7505
 30
-0.4396
 70
192
 0
VERTEX
 8
SIMMETRIA_1
 10
-0.6006
 20
1.7049
 30
0
 70
192
 0
VERTEX
 8
SIMMETRIA_1
 10
-0.4396
 20
1.7505
 30
0.4396
 70
192
 0
VERTEX
 8
SIMMETRIA_1
 10
-0.6006
 20
1.7961
 30
0
 70
192
 0
VERTEX
 8
SIMMETRIA_1
 10
-0.5265
 20
2.3147
 30
-0.5265
 70
192
 0
VERTEX
 8
SIMMETRIA_1
 10
-0.4396
 20
6.9016
 30
-0.4396
 70
192
 0
VERTEX
 8
SIMMETRIA_1
 10
-0.6006
 20
6.956
 30
0
 70
192
 0
VERTEX
 8
SIMMETRIA_1
 10
-0.702
 20
2.3147
 30
0
 70
192
 0
VERTEX
 8
SIMMETRIA_1
 10
-0.4396
 20
6.9016
 30
0.4396
 70
192
 0
VERTEX
 8
SIMMETRIA_1
 10
0.5265
 20
2.7184
 30
0.5265
 70
192
 0
VERTEX
 8
SIMMETRIA_1
 10
-0.5265
 20
2.7184
 30
0.5265
 70
192
 0
VERTEX
 8
SIMMETRIA_1
 10
0.1897
 20
2.5373
 30
0.689
 70
192
 0
VERTEX
 8
SIMMETRIA_1
 10
0.2642
 20
2.7236
 30
0.689
 70
192
 0
VERTEX
 8
SIMMETRIA_1
 10
0.2007
 20
2.9525
 30
0.689
 70
192
 0
VERTEX
 8
SIMMETRIA_1
 10
0
 20
3.0856
 30
0.689
 70
192
 0
VERTEX
 8
SIMMETRIA_1
 10
0
 20
2.4204
 30
0.689
 70
192
 0
VERTEX
 8
SIMMETRIA_1
 10
-0.1897
 20
2.5373
 30
0.689
 70
192
 0
VERTEX
 8
SIMMETRIA_1
 10
-0.2642
 20
2.7236
 30
0.689
 70
192
 0
VERTEX
 8
SIMMETRIA_1
 10
-0.2007
 20
2.9525
 30
0.689
 70
192
 0
VERTEX
 8
SIMMETRIA_1
 10
0.1269
 20
2.6087
 30
0.7474
 70
192
 0
VERTEX
 8
SIMMETRIA_1
 10
0.1768
 20
2.7333
 30
0.7474
 70
192
 0
VERTEX
 8
SIMMETRIA_1
 10
0.1342
 20
2.8864
 30
0.7474
 70
192
 0
VERTEX
 8
SIMMETRIA_1
 10
0
 20
2.9755
 30
0.7474
 70
192
 0
VERTEX
 8
SIMMETRIA_1
 10
0
 20
2.5305
 30
0.7474
 70
192
 0
VERTEX
 8
SIMMETRIA_1
 10
-0.1269
 20
2.6087
 30
0.7474
 70
192
 0
VERTEX
 8
SIMMETRIA_1
 10
-0.1768
 20
2.7333
 30
0.7474
 70
192
 0
VERTEX
 8
SIMMETRIA_1
 10
-0.1342
 20
2.8864
 30
0.7474
 70
192
 0
VERTEX
 8
SIMMETRIA_1
 10
0
 20
0
 30
0
 70
128
 71
322
 72
318
 73
317
 74
316
 0
VERTEX
 8
SIMMETRIA_1
 10
0
 20
0
 30
0
 70
128
 71
320
 72
316
 73
315
 74
319
 0
VERTEX
 8
SIMMETRIA_1
 10
0
 20
0
 30
0
 70
128
 71
321
 72
322
 73
316
 74
320
 0
VERTEX
 8
SIMMETRIA_1
 10
0
 20
0
 30
0
 70
128
 71
305
 72
62
 73
120
 74
186
 0
VERTEX
 8
SIMMETRIA_1
 10
0
 20
0
 30
0
 70
128
 71
186
 72
159
 73
305
 74
305
 0
VERTEX
 8
SIMMETRIA_1
 10
0
 20
0
 30
0
 70
128
 71
271
 72
238
 73
306
 74
303
 0
VERTEX
 8
SIMMETRIA_1
 10
0
 20
0
 30
0
 70
128
 71
306
 72
288
 73
303
 74
303
 0
VERTEX
 8
SIMMETRIA_1
 10
0
 20
0
 30
0
 70
128
 71
159
 72
118
 73
1
 74
1
 0
VERTEX
 8
SIMMETRIA_1
 10
0
 20
0
 30
0
 70
128
 71
23
 72
111
 73
62
 74
62
 0
VERTEX
 8
SIMMETRIA_1
 10
0
 20
0
 30
0
 70
128
 71
62
 72
305
 73
2
 74
23
 0
VERTEX
 8
SIMMETRIA_1
 10
0
 20
0
 30
0
 70
128
 71
305
 72
159
 73
1
 74
2
 0
VERTEX
 8
SIMMETRIA_1
 10
0
 20
0
 30
0
 70
128
 71
12
 72
26
 73
24
 74
97
 0
VERTEX
 8
SIMMETRIA_1
 10
0
 20
0
 30
0
 70
128
 71
7
 72
80
 73
77
 74
79
 0
VERTEX
 8
SIMMETRIA_1
 10
0
 20
0
 30
0
 70
128
 71
21
 72
81
 73
77
 74
80
 0
VERTEX
 8
SIMMETRIA_1
 10
0
 20
0
 30
0
 70
128
 71
66
 72
32
 73
30
 74
19
 0
VERTEX
 8
SIMMETRIA_1
 10
0
 20
0
 30
0
 70
128
 71
20
 72
45
 73
24
 74
26
 0
VERTEX
 8
SIMMETRIA_1
 10
0
 20
0
 30
0
 70
128
 71
10
 72
37
 73
28
 74
96
 0
VERTEX
 8
SIMMETRIA_1
 10
0
 20
0
 30
0
 70
128
 71
12
 72
96
 73
28
 74
26
 0
VERTEX
 8
SIMMETRIA_1
 10
0
 20
0
 30
0
 70
128
 71
20
 72
26
 73
28
 74
47
 0
VERTEX
 8
SIMMETRIA_1
 10
0
 20
0
 30
0
 70
128
 71
8
 72
88
 73
86
 74
87
 0
VERTEX
 8
SIMMETRIA_1
 10
0
 20
0
 30
0
 70
128
 71
22
 72
89
 73
86
 74
88
 0
VERTEX
 8
SIMMETRIA_1
 10
0
 20
0
 30
0
 70
128
 71
21
 72
80
 73
86
 74
89
 0
VERTEX
 8
SIMMETRIA_1
 10
0
 20
0
 30
0
 70
128
 71
7
 72
87
 73
86
 74
80
 0
VERTEX
 8
SIMMETRIA_1
 10
0
 20
0
 30
0
 70
128
 71
18
 72
47
 73
28
 74
37
 0
VERTEX
 8
SIMMETRIA_1
 10
0
 20
0
 30
0
 70
128
 71
22
 72
88
 73
90
 74
91
 0
VERTEX
 8
SIMMETRIA_1
 10
0
 20
0
 30
0
 70
128
 71
8
 72
92
 73
90
 74
88
 0
VERTEX
 8
SIMMETRIA_1
 10
0
 20
0
 30
0
 70
128
 71
69
 72
9
 73
11
 74
109
 0
VERTEX
 8
SIMMETRIA_1
 10
0
 20
0
 30
0
 70
128
 71
70
 72
109
 73
11
 74
19
 0
VERTEX
 8
SIMMETRIA_1
 10
0
 20
0
 30
0
 70
128
 71
10
 72
96
 73
93
 74
95
 0
VERTEX
 8
SIMMETRIA_1
 10
0
 20
0
 30
0
 70
128
 71
12
 72
97
 73
93
 74
96
 0
VERTEX
 8
SIMMETRIA_1
 10
0
 20
0
 30
0
 70
128
 71
66
 72
19
 73
11
 74
17
 0
VERTEX
 8
SIMMETRIA_1
 10
0
 20
0
 30
0
 70
128
 71
4
 72
100
 73
98
 74
99
 0
VERTEX
 8
SIMMETRIA_1
 10
0
 20
0
 30
0
 70
128
 71
6
 72
101
 73
98
 74
100
 0
VERTEX
 8
SIMMETRIA_1
 10
0
 20
0
 30
0
 70
128
 71
5
 72
102
 73
98
 74
101
 0
VERTEX
 8
SIMMETRIA_1
 10
0
 20
0
 30
0
 70
128
 71
3
 72
99
 73
98
 74
102
 0
VERTEX
 8
SIMMETRIA_1
 10
0
 20
0
 30
0
 70
128
 71
42
 72
105
 73
103
 74
104
 0
VERTEX
 8
SIMMETRIA_1
 10
0
 20
0
 30
0
 70
128
 71
44
 72
106
 73
103
 74
105
 0
VERTEX
 8
SIMMETRIA_1
 10
0
 20
0
 30
0
 70
128
 71
43
 72
107
 73
103
 74
106
 0
VERTEX
 8
SIMMETRIA_1
 10
0
 20
0
 30
0
 70
128
 71
41
 72
104
 73
103
 74
107
 0
VERTEX
 8
SIMMETRIA_1
 10
0
 20
0
 30
0
 70
128
 71
70
 72
110
 73
108
 74
109
 0
VERTEX
 8
SIMMETRIA_1
 10
0
 20
0
 30
0
 70
128
 71
65
 72
17
 73
11
 74
9
 0
VERTEX
 8
SIMMETRIA_1
 10
0
 20
0
 30
0
 70
128
 71
74
 72
14
 73
16
 74
63
 0
VERTEX
 8
SIMMETRIA_1
 10
0
 20
0
 30
0
 70
128
 71
69
 72
109
 73
108
 74
112
 0
VERTEX
 8
SIMMETRIA_1
 10
0
 20
0
 30
0
 70
128
 71
10
 72
95
 73
38
 74
37
 0
VERTEX
 8
SIMMETRIA_1
 10
0
 20
0
 30
0
 70
128
 71
18
 72
37
 73
38
 74
52
 0
VERTEX
 8
SIMMETRIA_1
 10
0
 20
0
 30
0
 70
128
 71
20
 72
48
 73
46
 74
45
 0
VERTEX
 8
SIMMETRIA_1
 10
0
 20
0
 30
0
 70
128
 71
3
 72
133
 73
46
 74
48
 0
VERTEX
 8
SIMMETRIA_1
 10
0
 20
0
 30
0
 70
128
 71
18
 72
55
 73
51
 74
47
 0
VERTEX
 8
SIMMETRIA_1
 10
0
 20
0
 30
0
 70
128
 71
20
 72
47
 73
51
 74
48
 0
VERTEX
 8
SIMMETRIA_1
 10
0
 20
0
 30
0
 70
128
 71
3
 72
48
 73
51
 74
99
 0
VERTEX
 8
SIMMETRIA_1
 10
0
 20
0
 30
0
 70
128
 71
4
 72
99
 73
51
 74
55
 0
VERTEX
 8
SIMMETRIA_1
 10
0
 20
0
 30
0
 70
128
 71
18
 72
52
 73
56
 74
55
 0
VERTEX
 8
SIMMETRIA_1
 10
0
 20
0
 30
0
 70
128
 71
6
 72
100
 73
123
 74
124
 0
VERTEX
 8
SIMMETRIA_1
 10
0
 20
0
 30
0
 70
128
 71
4
 72
125
 73
123
 74
100
 0
VERTEX
 8
SIMMETRIA_1
 10
0
 20
0
 30
0
 70
128
 71
4
 72
55
 73
56
 74
125
 0
VERTEX
 8
SIMMETRIA_1
 10
0
 20
0
 30
0
 70
128
 71
36
 72
78
 73
59
 74
146
 0
VERTEX
 8
SIMMETRIA_1
 10
0
 20
0
 30
0
 70
128
 71
44
 72
105
 73
126
 74
127
 0
VERTEX
 8
SIMMETRIA_1
 10
0
 20
0
 30
0
 70
128
 71
42
 72
128
 73
126
 74
105
 0
VERTEX
 8
SIMMETRIA_1
 10
0
 20
0
 30
0
 70
128
 71
61
 72
63
 73
16
 74
67
 0
VERTEX
 8
SIMMETRIA_1
 10
0
 20
0
 30
0
 70
128
 71
73
 72
31
 73
59
 74
78
 0
VERTEX
 8
SIMMETRIA_1
 10
0
 20
0
 30
0
 70
128
 71
41
 72
107
 73
129
 74
130
 0
VERTEX
 8
SIMMETRIA_1
 10
0
 20
0
 30
0
 70
128
 71
43
 72
131
 73
129
 74
107
 0
VERTEX
 8
SIMMETRIA_1
 10
0
 20
0
 30
0
 70
128
 71
70
 72
19
 73
30
 74
110
 0
VERTEX
 8
SIMMETRIA_1
 10
0
 20
0
 30
0
 70
128
 71
13
 72
156
 73
60
 74
85
 0
VERTEX
 8
SIMMETRIA_1
 10
0
 20
0
 30
0
 70
128
 71
3
 72
102
 73
132
 74
133
 0
VERTEX
 8
SIMMETRIA_1
 10
0
 20
0
 30
0
 70
128
 71
5
 72
134
 73
132
 74
102
 0
VERTEX
 8
SIMMETRIA_1
 10
0
 20
0
 30
0
 70
128
 71
66
 72
85
 73
60
 74
32
 0
VERTEX
 8
SIMMETRIA_1
 10
0
 20
0
 30
0
 70
128
 71
5
 72
101
 73
135
 74
136
 0
VERTEX
 8
SIMMETRIA_1
 10
0
 20
0
 30
0
 70
128
 71
6
 72
137
 73
135
 74
101
 0
VERTEX
 8
SIMMETRIA_1
 10
0
 20
0
 30
0
 70
128
 71
42
 72
104
 73
135
 74
137
 0
VERTEX
 8
SIMMETRIA_1
 10
0
 20
0
 30
0
 70
128
 71
41
 72
136
 73
135
 74
104
 0
VERTEX
 8
SIMMETRIA_1
 10
0
 20
0
 30
0
 70
128
 71
8
 72
87
 73
138
 74
139
 0
VERTEX
 8
SIMMETRIA_1
 10
0
 20
0
 30
0
 70
128
 71
7
 72
140
 73
138
 74
87
 0
VERTEX
 8
SIMMETRIA_1
 10
0
 20
0
 30
0
 70
128
 71
43
 72
106
 73
138
 74
140
 0
VERTEX
 8
SIMMETRIA_1
 10
0
 20
0
 30
0
 70
128
 71
44
 72
139
 73
138
 74
106
 0
VERTEX
 8
SIMMETRIA_1
 10
0
 20
0
 30
0
 70
128
 71
65
 72
9
 73
75
 74
94
 0
VERTEX
 8
SIMMETRIA_1
 10
0
 20
0
 30
0
 70
128
 71
34
 72
160
 73
68
 74
82
 0
VERTEX
 8
SIMMETRIA_1
 10
0
 20
0
 30
0
 70
128
 71
74
 72
82
 73
68
 74
14
 0
VERTEX
 8
SIMMETRIA_1
 10
0
 20
0
 30
0
 70
128
 71
15
 72
84
 73
76
 74
170
 0
VERTEX
 8
SIMMETRIA_1
 10
0
 20
0
 30
0
 70
128
 71
69
 72
112
 73
75
 74
9
 0
VERTEX
 8
SIMMETRIA_1
 10
0
 20
0
 30
0
 70
128
 71
65
 72
94
 73
76
 74
84
 0
VERTEX
 8
SIMMETRIA_1
 10
0
 20
0
 30
0
 70
128
 71
34
 72
82
 73
83
 74
172
 0
VERTEX
 8
SIMMETRIA_1
 10
0
 20
0
 30
0
 70
128
 71
36
 72
172
 73
83
 74
78
 0
VERTEX
 8
SIMMETRIA_1
 10
0
 20
0
 30
0
 70
128
 71
73
 72
78
 73
83
 74
39
 0
VERTEX
 8
SIMMETRIA_1
 10
0
 20
0
 30
0
 70
128
 71
8
 72
139
 73
147
 74
92
 0
VERTEX
 8
SIMMETRIA_1
 10
0
 20
0
 30
0
 70
128
 71
44
 72
127
 73
147
 74
139
 0
VERTEX
 8
SIMMETRIA_1
 10
0
 20
0
 30
0
 70
128
 71
74
 72
39
 73
83
 74
82
 0
VERTEX
 8
SIMMETRIA_1
 10
0
 20
0
 30
0
 70
128
 71
6
 72
124
 73
148
 74
137
 0
VERTEX
 8
SIMMETRIA_1
 10
0
 20
0
 30
0
 70
128
 71
13
 72
85
 73
113
 74
185
 0
VERTEX
 8
SIMMETRIA_1
 10
0
 20
0
 30
0
 70
128
 71
15
 72
185
 73
113
 74
84
 0
VERTEX
 8
SIMMETRIA_1
 10
0
 20
0
 30
0
 70
128
 71
42
 72
137
 73
148
 74
128
 0
VERTEX
 8
SIMMETRIA_1
 10
0
 20
0
 30
0
 70
128
 71
65
 72
84
 73
113
 74
17
 0
VERTEX
 8
SIMMETRIA_1
 10
0
 20
0
 30
0
 70
128
 71
5
 72
136
 73
149
 74
134
 0
VERTEX
 8
SIMMETRIA_1
 10
0
 20
0
 30
0
 70
128
 71
41
 72
130
 73
149
 74
136
 0
VERTEX
 8
SIMMETRIA_1
 10
0
 20
0
 30
0
 70
128
 71
66
 72
17
 73
113
 74
85
 0
VERTEX
 8
SIMMETRIA_1
 10
0
 20
0
 30
0
 70
128
 71
7
 72
79
 73
150
 74
140
 0
VERTEX
 8
SIMMETRIA_1
 10
0
 20
0
 30
0
 70
128
 71
29
 72
122
 73
114
 74
190
 0
VERTEX
 8
SIMMETRIA_1
 10
0
 20
0
 30
0
 70
128
 71
13
 72
185
 73
116
 74
187
 0
VERTEX
 8
SIMMETRIA_1
 10
0
 20
0
 30
0
 70
128
 71
43
 72
140
 73
150
 74
131
 0
VERTEX
 8
SIMMETRIA_1
 10
0
 20
0
 30
0
 70
128
 71
21
 72
89
 73
151
 74
152
 0
VERTEX
 8
SIMMETRIA_1
 10
0
 20
0
 30
0
 70
128
 71
22
 72
153
 73
151
 74
89
 0
VERTEX
 8
SIMMETRIA_1
 10
0
 20
0
 30
0
 70
128
 71
50
 72
154
 73
151
 74
153
 0
VERTEX
 8
SIMMETRIA_1
 10
0
 20
0
 30
0
 70
128
 71
49
 72
152
 73
151
 74
154
 0
VERTEX
 8
SIMMETRIA_1
 10
0
 20
0
 30
0
 70
128
 71
22
 72
91
 73
155
 74
153
 0
VERTEX
 8
SIMMETRIA_1
 10
0
 20
0
 30
0
 70
128
 71
57
 72
71
 73
114
 74
122
 0
VERTEX
 8
SIMMETRIA_1
 10
0
 20
0
 30
0
 70
128
 71
73
 72
40
 73
33
 74
31
 0
VERTEX
 8
SIMMETRIA_1
 10
0
 20
0
 30
0
 70
128
 71
50
 72
153
 73
155
 74
157
 0
VERTEX
 8
SIMMETRIA_1
 10
0
 20
0
 30
0
 70
128
 71
25
 72
189
 73
115
 74
144
 0
VERTEX
 8
SIMMETRIA_1
 10
0
 20
0
 30
0
 70
128
 71
53
 72
144
 73
115
 74
174
 0
VERTEX
 8
SIMMETRIA_1
 10
0
 20
0
 30
0
 70
128
 71
15
 72
184
 73
116
 74
185
 0
VERTEX
 8
SIMMETRIA_1
 10
0
 20
0
 30
0
 70
128
 71
27
 72
183
 73
119
 74
141
 0
VERTEX
 8
SIMMETRIA_1
 10
0
 20
0
 30
0
 70
128
 71
58
 72
141
 73
119
 74
117
 0
VERTEX
 8
SIMMETRIA_1
 10
0
 20
0
 30
0
 70
128
 71
21
 72
152
 73
161
 74
81
 0
VERTEX
 8
SIMMETRIA_1
 10
0
 20
0
 30
0
 70
128
 71
49
 72
162
 73
161
 74
152
 0
VERTEX
 8
SIMMETRIA_1
 10
0
 20
0
 30
0
 70
128
 71
35
 72
143
 73
121
 74
181
 0
VERTEX
 8
SIMMETRIA_1
 10
0
 20
0
 30
0
 70
128
 71
49
 72
154
 73
163
 74
164
 0
VERTEX
 8
SIMMETRIA_1
 10
0
 20
0
 30
0
 70
128
 71
50
 72
165
 73
163
 74
154
 0
VERTEX
 8
SIMMETRIA_1
 10
0
 20
0
 30
0
 70
128
 71
54
 72
166
 73
163
 74
165
 0
VERTEX
 8
SIMMETRIA_1
 10
0
 20
0
 30
0
 70
128
 71
53
 72
164
 73
163
 74
166
 0
VERTEX
 8
SIMMETRIA_1
 10
0
 20
0
 30
0
 70
128
 71
50
 72
157
 73
167
 74
165
 0
VERTEX
 8
SIMMETRIA_1
 10
0
 20
0
 30
0
 70
128
 71
34
 72
172
 73
116
 74
184
 0
VERTEX
 8
SIMMETRIA_1
 10
0
 20
0
 30
0
 70
128
 71
54
 72
169
 73
121
 74
143
 0
VERTEX
 8
SIMMETRIA_1
 10
0
 20
0
 30
0
 70
128
 71
54
 72
165
 73
167
 74
169
 0
VERTEX
 8
SIMMETRIA_1
 10
0
 20
0
 30
0
 70
128
 71
27
 72
141
 73
142
 74
179
 0
VERTEX
 8
SIMMETRIA_1
 10
0
 20
0
 30
0
 70
128
 71
29
 72
179
 73
142
 74
122
 0
VERTEX
 8
SIMMETRIA_1
 10
0
 20
0
 30
0
 70
128
 71
57
 72
122
 73
142
 74
168
 0
VERTEX
 8
SIMMETRIA_1
 10
0
 20
0
 30
0
 70
128
 71
58
 72
168
 73
142
 74
141
 0
VERTEX
 8
SIMMETRIA_1
 10
0
 20
0
 30
0
 70
128
 71
25
 72
144
 73
145
 74
177
 0
VERTEX
 8
SIMMETRIA_1
 10
0
 20
0
 30
0
 70
128
 71
49
 72
164
 73
173
 74
162
 0
VERTEX
 8
SIMMETRIA_1
 10
0
 20
0
 30
0
 70
128
 71
53
 72
174
 73
173
 74
164
 0
VERTEX
 8
SIMMETRIA_1
 10
0
 20
0
 30
0
 70
128
 71
35
 72
177
 73
145
 74
143
 0
VERTEX
 8
SIMMETRIA_1
 10
0
 20
0
 30
0
 70
128
 71
25
 72
177
 73
175
 74
176
 0
VERTEX
 8
SIMMETRIA_1
 10
0
 20
0
 30
0
 70
128
 71
35
 72
178
 73
175
 74
177
 0
VERTEX
 8
SIMMETRIA_1
 10
0
 20
0
 30
0
 70
128
 71
27
 72
179
 73
175
 74
178
 0
VERTEX
 8
SIMMETRIA_1
 10
0
 20
0
 30
0
 70
128
 71
29
 72
176
 73
175
 74
179
 0
VERTEX
 8
SIMMETRIA_1
 10
0
 20
0
 30
0
 70
128
 71
35
 72
181
 73
180
 74
178
 0
VERTEX
 8
SIMMETRIA_1
 10
0
 20
0
 30
0
 70
128
 71
62
 72
111
 73
33
 74
40
 0
VERTEX
 8
SIMMETRIA_1
 10
0
 20
0
 30
0
 70
128
 71
74
 72
63
 73
64
 74
39
 0
VERTEX
 8
SIMMETRIA_1
 10
0
 20
0
 30
0
 70
128
 71
27
 72
178
 73
180
 74
183
 0
VERTEX
 8
SIMMETRIA_1
 10
0
 20
0
 30
0
 70
128
 71
54
 72
143
 73
145
 74
166
 0
VERTEX
 8
SIMMETRIA_1
 10
0
 20
0
 30
0
 70
128
 71
53
 72
166
 73
145
 74
144
 0
VERTEX
 8
SIMMETRIA_1
 10
0
 20
0
 30
0
 70
128
 71
73
 72
39
 73
64
 74
40
 0
VERTEX
 8
SIMMETRIA_1
 10
0
 20
0
 30
0
 70
128
 71
36
 72
146
 73
158
 74
187
 0
VERTEX
 8
SIMMETRIA_1
 10
0
 20
0
 30
0
 70
128
 71
62
 72
40
 73
64
 74
120
 0
VERTEX
 8
SIMMETRIA_1
 10
0
 20
0
 30
0
 70
128
 71
25
 72
176
 73
188
 74
189
 0
VERTEX
 8
SIMMETRIA_1
 10
0
 20
0
 30
0
 70
128
 71
29
 72
190
 73
188
 74
176
 0
VERTEX
 8
SIMMETRIA_1
 10
0
 20
0
 30
0
 70
128
 71
61
 72
120
 73
64
 74
63
 0
VERTEX
 8
SIMMETRIA_1
 10
0
 20
0
 30
0
 70
128
 71
57
 72
168
 73
186
 74
182
 0
VERTEX
 8
SIMMETRIA_1
 10
0
 20
0
 30
0
 70
128
 71
58
 72
159
 73
186
 74
168
 0
VERTEX
 8
SIMMETRIA_1
 10
0
 20
0
 30
0
 70
128
 71
61
 72
182
 73
186
 74
120
 0
VERTEX
 8
SIMMETRIA_1
 10
0
 20
0
 30
0
 70
128
 71
58
 72
117
 73
118
 74
159
 0
VERTEX
 8
SIMMETRIA_1
 10
0
 20
0
 30
0
 70
128
 71
13
 72
187
 73
158
 74
156
 0
VERTEX
 8
SIMMETRIA_1
 10
0
 20
0
 30
0
 70
128
 71
36
 72
187
 73
116
 74
172
 0
VERTEX
 8
SIMMETRIA_1
 10
0
 20
0
 30
0
 70
128
 71
34
 72
184
 73
171
 74
160
 0
VERTEX
 8
SIMMETRIA_1
 10
0
 20
0
 30
0
 70
128
 71
61
 72
67
 73
72
 74
182
 0
VERTEX
 8
SIMMETRIA_1
 10
0
 20
0
 30
0
 70
128
 71
57
 72
182
 73
72
 74
71
 0
VERTEX
 8
SIMMETRIA_1
 10
0
 20
0
 30
0
 70
128
 71
15
 72
170
 73
171
 74
184
 0
VERTEX
 8
SIMMETRIA_1
 10
0
 20
0
 30
0
 70
128
 71
211
 72
192
 73
306
 74
238
 0
VERTEX
 8
SIMMETRIA_1
 10
0
 20
0
 30
0
 70
128
 71
238
 72
111
 73
211
 74
211
 0
VERTEX
 8
SIMMETRIA_1
 10
0
 20
0
 30
0
 70
128
 71
191
 72
118
 73
288
 74
288
 0
VERTEX
 8
SIMMETRIA_1
 10
0
 20
0
 30
0
 70
128
 71
288
 72
306
 73
192
 74
191
 0
VERTEX
 8
SIMMETRIA_1
 10
0
 20
0
 30
0
 70
128
 71
202
 72
97
 73
24
 74
213
 0
VERTEX
 8
SIMMETRIA_1
 10
0
 20
0
 30
0
 70
128
 71
197
 72
79
 73
77
 74
248
 0
VERTEX
 8
SIMMETRIA_1
 10
0
 20
0
 30
0
 70
128
 71
209
 72
248
 73
77
 74
81
 0
VERTEX
 8
SIMMETRIA_1
 10
0
 20
0
 30
0
 70
128
 71
242
 72
207
 73
30
 74
32
 0
VERTEX
 8
SIMMETRIA_1
 10
0
 20
0
 30
0
 70
128
 71
208
 72
213
 73
24
 74
45
 0
VERTEX
 8
SIMMETRIA_1
 10
0
 20
0
 30
0
 70
128
 71
200
 72
257
 73
215
 74
220
 0
VERTEX
 8
SIMMETRIA_1
 10
0
 20
0
 30
0
 70
128
 71
202
 72
213
 73
215
 74
257
 0
VERTEX
 8
SIMMETRIA_1
 10
0
 20
0
 30
0
 70
128
 71
208
 72
227
 73
215
 74
213
 0
VERTEX
 8
SIMMETRIA_1
 10
0
 20
0
 30
0
 70
128
 71
198
 72
254
 73
253
 74
255
 0
VERTEX
 8
SIMMETRIA_1
 10
0
 20
0
 30
0
 70
128
 71
210
 72
255
 73
253
 74
256
 0
VERTEX
 8
SIMMETRIA_1
 10
0
 20
0
 30
0
 70
128
 71
209
 72
256
 73
253
 74
248
 0
VERTEX
 8
SIMMETRIA_1
 10
0
 20
0
 30
0
 70
128
 71
197
 72
248
 73
253
 74
254
 0
VERTEX
 8
SIMMETRIA_1
 10
0
 20
0
 30
0
 70
128
 71
206
 72
220
 73
215
 74
227
 0
VERTEX
 8
SIMMETRIA_1
 10
0
 20
0
 30
0
 70
128
 71
210
 72
91
 73
90
 74
255
 0
VERTEX
 8
SIMMETRIA_1
 10
0
 20
0
 30
0
 70
128
 71
198
 72
255
 73
90
 74
92
 0
VERTEX
 8
SIMMETRIA_1
 10
0
 20
0
 30
0
 70
128
 71
243
 72
268
 73
201
 74
199
 0
VERTEX
 8
SIMMETRIA_1
 10
0
 20
0
 30
0
 70
128
 71
244
 72
207
 73
201
 74
268
 0
VERTEX
 8
SIMMETRIA_1
 10
0
 20
0
 30
0
 70
128
 71
200
 72
95
 73
93
 74
257
 0
VERTEX
 8
SIMMETRIA_1
 10
0
 20
0
 30
0
 70
128
 71
202
 72
257
 73
93
 74
97
 0
VERTEX
 8
SIMMETRIA_1
 10
0
 20
0
 30
0
 70
128
 71
242
 72
205
 73
201
 74
207
 0
VERTEX
 8
SIMMETRIA_1
 10
0
 20
0
 30
0
 70
128
 71
194
 72
259
 73
258
 74
260
 0
VERTEX
 8
SIMMETRIA_1
 10
0
 20
0
 30
0
 70
128
 71
196
 72
260
 73
258
 74
261
 0
VERTEX
 8
SIMMETRIA_1
 10
0
 20
0
 30
0
 70
128
 71
195
 72
261
 73
258
 74
262
 0
VERTEX
 8
SIMMETRIA_1
 10
0
 20
0
 30
0
 70
128
 71
193
 72
262
 73
258
 74
259
 0
VERTEX
 8
SIMMETRIA_1
 10
0
 20
0
 30
0
 70
128
 71
224
 72
264
 73
263
 74
265
 0
VERTEX
 8
SIMMETRIA_1
 10
0
 20
0
 30
0
 70
128
 71
226
 72
265
 73
263
 74
266
 0
VERTEX
 8
SIMMETRIA_1
 10
0
 20
0
 30
0
 70
128
 71
225
 72
266
 73
263
 74
267
 0
VERTEX
 8
SIMMETRIA_1
 10
0
 20
0
 30
0
 70
128
 71
223
 72
267
 73
263
 74
264
 0
VERTEX
 8
SIMMETRIA_1
 10
0
 20
0
 30
0
 70
128
 71
244
 72
268
 73
108
 74
110
 0
VERTEX
 8
SIMMETRIA_1
 10
0
 20
0
 30
0
 70
128
 71
241
 72
199
 73
201
 74
205
 0
VERTEX
 8
SIMMETRIA_1
 10
0
 20
0
 30
0
 70
128
 71
246
 72
239
 73
16
 74
14
 0
VERTEX
 8
SIMMETRIA_1
 10
0
 20
0
 30
0
 70
128
 71
243
 72
112
 73
108
 74
268
 0
VERTEX
 8
SIMMETRIA_1
 10
0
 20
0
 30
0
 70
128
 71
200
 72
220
 73
38
 74
95
 0
VERTEX
 8
SIMMETRIA_1
 10
0
 20
0
 30
0
 70
128
 71
206
 72
52
 73
38
 74
220
 0
VERTEX
 8
SIMMETRIA_1
 10
0
 20
0
 30
0
 70
128
 71
208
 72
45
 73
46
 74
228
 0
VERTEX
 8
SIMMETRIA_1
 10
0
 20
0
 30
0
 70
128
 71
193
 72
228
 73
46
 74
133
 0
VERTEX
 8
SIMMETRIA_1
 10
0
 20
0
 30
0
 70
128
 71
206
 72
227
 73
231
 74
234
 0
VERTEX
 8
SIMMETRIA_1
 10
0
 20
0
 30
0
 70
128
 71
208
 72
228
 73
231
 74
227
 0
VERTEX
 8
SIMMETRIA_1
 10
0
 20
0
 30
0
 70
128
 71
193
 72
259
 73
231
 74
228
 0
VERTEX
 8
SIMMETRIA_1
 10
0
 20
0
 30
0
 70
128
 71
194
 72
234
 73
231
 74
259
 0
VERTEX
 8
SIMMETRIA_1
 10
0
 20
0
 30
0
 70
128
 71
206
 72
234
 73
56
 74
52
 0
VERTEX
 8
SIMMETRIA_1
 10
0
 20
0
 30
0
 70
128
 71
196
 72
124
 73
123
 74
260
 0
VERTEX
 8
SIMMETRIA_1
 10
0
 20
0
 30
0
 70
128
 71
194
 72
260
 73
123
 74
125
 0
VERTEX
 8
SIMMETRIA_1
 10
0
 20
0
 30
0
 70
128
 71
194
 72
125
 73
56
 74
234
 0
VERTEX
 8
SIMMETRIA_1
 10
0
 20
0
 30
0
 70
128
 71
219
 72
146
 73
59
 74
247
 0
VERTEX
 8
SIMMETRIA_1
 10
0
 20
0
 30
0
 70
128
 71
226
 72
127
 73
126
 74
265
 0
VERTEX
 8
SIMMETRIA_1
 10
0
 20
0
 30
0
 70
128
 71
224
 72
265
 73
126
 74
128
 0
VERTEX
 8
SIMMETRIA_1
 10
0
 20
0
 30
0
 70
128
 71
237
 72
67
 73
16
 74
239
 0
VERTEX
 8
SIMMETRIA_1
 10
0
 20
0
 30
0
 70
128
 71
245
 72
247
 73
59
 74
31
 0
VERTEX
 8
SIMMETRIA_1
 10
0
 20
0
 30
0
 70
128
 71
223
 72
130
 73
129
 74
267
 0
VERTEX
 8
SIMMETRIA_1
 10
0
 20
0
 30
0
 70
128
 71
225
 72
267
 73
129
 74
131
 0
VERTEX
 8
SIMMETRIA_1
 10
0
 20
0
 30
0
 70
128
 71
244
 72
110
 73
30
 74
207
 0
VERTEX
 8
SIMMETRIA_1
 10
0
 20
0
 30
0
 70
128
 71
203
 72
252
 73
60
 74
156
 0
VERTEX
 8
SIMMETRIA_1
 10
0
 20
0
 30
0
 70
128
 71
193
 72
133
 73
132
 74
262
 0
VERTEX
 8
SIMMETRIA_1
 10
0
 20
0
 30
0
 70
128
 71
195
 72
262
 73
132
 74
134
 0
VERTEX
 8
SIMMETRIA_1
 10
0
 20
0
 30
0
 70
128
 71
242
 72
32
 73
60
 74
252
 0
VERTEX
 8
SIMMETRIA_1
 10
0
 20
0
 30
0
 70
128
 71
195
 72
274
 73
273
 74
261
 0
VERTEX
 8
SIMMETRIA_1
 10
0
 20
0
 30
0
 70
128
 71
196
 72
261
 73
273
 74
275
 0
VERTEX
 8
SIMMETRIA_1
 10
0
 20
0
 30
0
 70
128
 71
224
 72
275
 73
273
 74
264
 0
VERTEX
 8
SIMMETRIA_1
 10
0
 20
0
 30
0
 70
128
 71
223
 72
264
 73
273
 74
274
 0
VERTEX
 8
SIMMETRIA_1
 10
0
 20
0
 30
0
 70
128
 71
198
 72
277
 73
276
 74
254
 0
VERTEX
 8
SIMMETRIA_1
 10
0
 20
0
 30
0
 70
128
 71
197
 72
254
 73
276
 74
278
 0
VERTEX
 8
SIMMETRIA_1
 10
0
 20
0
 30
0
 70
128
 71
225
 72
278
 73
276
 74
266
 0
VERTEX
 8
SIMMETRIA_1
 10
0
 20
0
 30
0
 70
128
 71
226
 72
266
 73
276
 74
277
 0
VERTEX
 8
SIMMETRIA_1
 10
0
 20
0
 30
0
 70
128
 71
241
 72
94
 73
75
 74
199
 0
VERTEX
 8
SIMMETRIA_1
 10
0
 20
0
 30
0
 70
128
 71
217
 72
249
 73
68
 74
160
 0
VERTEX
 8
SIMMETRIA_1
 10
0
 20
0
 30
0
 70
128
 71
246
 72
14
 73
68
 74
249
 0
VERTEX
 8
SIMMETRIA_1
 10
0
 20
0
 30
0
 70
128
 71
204
 72
170
 73
76
 74
251
 0
VERTEX
 8
SIMMETRIA_1
 10
0
 20
0
 30
0
 70
128
 71
243
 72
199
 73
75
 74
112
 0
VERTEX
 8
SIMMETRIA_1
 10
0
 20
0
 30
0
 70
128
 71
241
 72
251
 73
76
 74
94
 0
VERTEX
 8
SIMMETRIA_1
 10
0
 20
0
 30
0
 70
128
 71
217
 72
294
 73
250
 74
249
 0
VERTEX
 8
SIMMETRIA_1
 10
0
 20
0
 30
0
 70
128
 71
219
 72
247
 73
250
 74
294
 0
VERTEX
 8
SIMMETRIA_1
 10
0
 20
0
 30
0
 70
128
 71
245
 72
221
 73
250
 74
247
 0
VERTEX
 8
SIMMETRIA_1
 10
0
 20
0
 30
0
 70
128
 71
198
 72
92
 73
147
 74
277
 0
VERTEX
 8
SIMMETRIA_1
 10
0
 20
0
 30
0
 70
128
 71
226
 72
277
 73
147
 74
127
 0
VERTEX
 8
SIMMETRIA_1
 10
0
 20
0
 30
0
 70
128
 71
246
 72
249
 73
250
 74
221
 0
VERTEX
 8
SIMMETRIA_1
 10
0
 20
0
 30
0
 70
128
 71
196
 72
275
 73
148
 74
124
 0
VERTEX
 8
SIMMETRIA_1
 10
0
 20
0
 30
0
 70
128
 71
203
 72
302
 73
269
 74
252
 0
VERTEX
 8
SIMMETRIA_1
 10
0
 20
0
 30
0
 70
128
 71
204
 72
251
 73
269
 74
302
 0
VERTEX
 8
SIMMETRIA_1
 10
0
 20
0
 30
0
 70
128
 71
224
 72
128
 73
148
 74
275
 0
VERTEX
 8
SIMMETRIA_1
 10
0
 20
0
 30
0
 70
128
 71
241
 72
205
 73
269
 74
251
 0
VERTEX
 8
SIMMETRIA_1
 10
0
 20
0
 30
0
 70
128
 71
195
 72
134
 73
149
 74
274
 0
VERTEX
 8
SIMMETRIA_1
 10
0
 20
0
 30
0
 70
128
 71
223
 72
274
 73
149
 74
130
 0
VERTEX
 8
SIMMETRIA_1
 10
0
 20
0
 30
0
 70
128
 71
242
 72
252
 73
269
 74
205
 0
VERTEX
 8
SIMMETRIA_1
 10
0
 20
0
 30
0
 70
128
 71
197
 72
278
 73
150
 74
79
 0
VERTEX
 8
SIMMETRIA_1
 10
0
 20
0
 30
0
 70
128
 71
216
 72
190
 73
114
 74
272
 0
VERTEX
 8
SIMMETRIA_1
 10
0
 20
0
 30
0
 70
128
 71
203
 72
304
 73
270
 74
302
 0
VERTEX
 8
SIMMETRIA_1
 10
0
 20
0
 30
0
 70
128
 71
225
 72
131
 73
150
 74
278
 0
VERTEX
 8
SIMMETRIA_1
 10
0
 20
0
 30
0
 70
128
 71
209
 72
285
 73
284
 74
256
 0
VERTEX
 8
SIMMETRIA_1
 10
0
 20
0
 30
0
 70
128
 71
210
 72
256
 73
284
 74
286
 0
VERTEX
 8
SIMMETRIA_1
 10
0
 20
0
 30
0
 70
128
 71
230
 72
286
 73
284
 74
287
 0
VERTEX
 8
SIMMETRIA_1
 10
0
 20
0
 30
0
 70
128
 71
229
 72
287
 73
284
 74
285
 0
VERTEX
 8
SIMMETRIA_1
 10
0
 20
0
 30
0
 70
128
 71
210
 72
286
 73
155
 74
91
 0
VERTEX
 8
SIMMETRIA_1
 10
0
 20
0
 30
0
 70
128
 71
235
 72
272
 73
114
 74
71
 0
VERTEX
 8
SIMMETRIA_1
 10
0
 20
0
 30
0
 70
128
 71
245
 72
31
 73
33
 74
222
 0
VERTEX
 8
SIMMETRIA_1
 10
0
 20
0
 30
0
 70
128
 71
230
 72
157
 73
155
 74
286
 0
VERTEX
 8
SIMMETRIA_1
 10
0
 20
0
 30
0
 70
128
 71
212
 72
282
 73
115
 74
189
 0
VERTEX
 8
SIMMETRIA_1
 10
0
 20
0
 30
0
 70
128
 71
232
 72
174
 73
115
 74
282
 0
VERTEX
 8
SIMMETRIA_1
 10
0
 20
0
 30
0
 70
128
 71
204
 72
302
 73
270
 74
301
 0
VERTEX
 8
SIMMETRIA_1
 10
0
 20
0
 30
0
 70
128
 71
214
 72
279
 73
119
 74
183
 0
VERTEX
 8
SIMMETRIA_1
 10
0
 20
0
 30
0
 70
128
 71
236
 72
117
 73
119
 74
279
 0
VERTEX
 8
SIMMETRIA_1
 10
0
 20
0
 30
0
 70
128
 71
209
 72
81
 73
161
 74
285
 0
VERTEX
 8
SIMMETRIA_1
 10
0
 20
0
 30
0
 70
128
 71
229
 72
285
 73
161
 74
162
 0
VERTEX
 8
SIMMETRIA_1
 10
0
 20
0
 30
0
 70
128
 71
218
 72
181
 73
121
 74
281
 0
VERTEX
 8
SIMMETRIA_1
 10
0
 20
0
 30
0
 70
128
 71
229
 72
290
 73
289
 74
287
 0
VERTEX
 8
SIMMETRIA_1
 10
0
 20
0
 30
0
 70
128
 71
230
 72
287
 73
289
 74
291
 0
VERTEX
 8
SIMMETRIA_1
 10
0
 20
0
 30
0
 70
128
 71
233
 72
291
 73
289
 74
292
 0
VERTEX
 8
SIMMETRIA_1
 10
0
 20
0
 30
0
 70
128
 71
232
 72
292
 73
289
 74
290
 0
VERTEX
 8
SIMMETRIA_1
 10
0
 20
0
 30
0
 70
128
 71
230
 72
291
 73
167
 74
157
 0
VERTEX
 8
SIMMETRIA_1
 10
0
 20
0
 30
0
 70
128
 71
217
 72
301
 73
270
 74
294
 0
VERTEX
 8
SIMMETRIA_1
 10
0
 20
0
 30
0
 70
128
 71
233
 72
281
 73
121
 74
169
 0
VERTEX
 8
SIMMETRIA_1
 10
0
 20
0
 30
0
 70
128
 71
233
 72
169
 73
167
 74
291
 0
VERTEX
 8
SIMMETRIA_1
 10
0
 20
0
 30
0
 70
128
 71
214
 72
299
 73
280
 74
279
 0
VERTEX
 8
SIMMETRIA_1
 10
0
 20
0
 30
0
 70
128
 71
216
 72
272
 73
280
 74
299
 0
VERTEX
 8
SIMMETRIA_1
 10
0
 20
0
 30
0
 70
128
 71
235
 72
293
 73
280
 74
272
 0
VERTEX
 8
SIMMETRIA_1
 10
0
 20
0
 30
0
 70
128
 71
236
 72
279
 73
280
 74
293
 0
VERTEX
 8
SIMMETRIA_1
 10
0
 20
0
 30
0
 70
128
 71
212
 72
297
 73
283
 74
282
 0
VERTEX
 8
SIMMETRIA_1
 10
0
 20
0
 30
0
 70
128
 71
229
 72
162
 73
173
 74
290
 0
VERTEX
 8
SIMMETRIA_1
 10
0
 20
0
 30
0
 70
128
 71
232
 72
290
 73
173
 74
174
 0
VERTEX
 8
SIMMETRIA_1
 10
0
 20
0
 30
0
 70
128
 71
218
 72
281
 73
283
 74
297
 0
VERTEX
 8
SIMMETRIA_1
 10
0
 20
0
 30
0
 70
128
 71
212
 72
296
 73
295
 74
297
 0
VERTEX
 8
SIMMETRIA_1
 10
0
 20
0
 30
0
 70
128
 71
218
 72
297
 73
295
 74
298
 0
VERTEX
 8
SIMMETRIA_1
 10
0
 20
0
 30
0
 70
128
 71
214
 72
298
 73
295
 74
299
 0
VERTEX
 8
SIMMETRIA_1
 10
0
 20
0
 30
0
 70
128
 71
216
 72
299
 73
295
 74
296
 0
VERTEX
 8
SIMMETRIA_1
 10
0
 20
0
 30
0
 70
128
 71
218
 72
298
 73
180
 74
181
 0
VERTEX
 8
SIMMETRIA_1
 10
0
 20
0
 30
0
 70
128
 71
238
 72
222
 73
33
 74
111
 0
VERTEX
 8
SIMMETRIA_1
 10
0
 20
0
 30
0
 70
128
 71
246
 72
221
 73
240
 74
239
 0
VERTEX
 8
SIMMETRIA_1
 10
0
 20
0
 30
0
 70
128
 71
214
 72
183
 73
180
 74
298
 0
VERTEX
 8
SIMMETRIA_1
 10
0
 20
0
 30
0
 70
128
 71
233
 72
292
 73
283
 74
281
 0
VERTEX
 8
SIMMETRIA_1
 10
0
 20
0
 30
0
 70
128
 71
232
 72
282
 73
283
 74
292
 0
VERTEX
 8
SIMMETRIA_1
 10
0
 20
0
 30
0
 70
128
 71
245
 72
222
 73
240
 74
221
 0
VERTEX
 8
SIMMETRIA_1
 10
0
 20
0
 30
0
 70
128
 71
219
 72
304
 73
158
 74
146
 0
VERTEX
 8
SIMMETRIA_1
 10
0
 20
0
 30
0
 70
128
 71
238
 72
271
 73
240
 74
222
 0
VERTEX
 8
SIMMETRIA_1
 10
0
 20
0
 30
0
 70
128
 71
212
 72
189
 73
188
 74
296
 0
VERTEX
 8
SIMMETRIA_1
 10
0
 20
0
 30
0
 70
128
 71
216
 72
296
 73
188
 74
190
 0
VERTEX
 8
SIMMETRIA_1
 10
0
 20
0
 30
0
 70
128
 71
237
 72
239
 73
240
 74
271
 0
VERTEX
 8
SIMMETRIA_1
 10
0
 20
0
 30
0
 70
128
 71
235
 72
300
 73
303
 74
293
 0
VERTEX
 8
SIMMETRIA_1
 10
0
 20
0
 30
0
 70
128
 71
236
 72
293
 73
303
 74
288
 0
VERTEX
 8
SIMMETRIA_1
 10
0
 20
0
 30
0
 70
128
 71
237
 72
271
 73
303
 74
300
 0
VERTEX
 8
SIMMETRIA_1
 10
0
 20
0
 30
0
 70
128
 71
236
 72
288
 73
118
 74
117
 0
VERTEX
 8
SIMMETRIA_1
 10
0
 20
0
 30
0
 70
128
 71
203
 72
156
 73
158
 74
304
 0
VERTEX
 8
SIMMETRIA_1
 10
0
 20
0
 30
0
 70
128
 71
219
 72
294
 73
270
 74
304
 0
VERTEX
 8
SIMMETRIA_1
 10
0
 20
0
 30
0
 70
128
 71
217
 72
160
 73
171
 74
301
 0
VERTEX
 8
SIMMETRIA_1
 10
0
 20
0
 30
0
 70
128
 71
237
 72
300
 73
72
 74
67
 0
VERTEX
 8
SIMMETRIA_1
 10
0
 20
0
 30
0
 70
128
 71
235
 72
71
 73
72
 74
300
 0
VERTEX
 8
SIMMETRIA_1
 10
0
 20
0
 30
0
 70
128
 71
204
 72
301
 73
171
 74
170
 0
VERTEX
 8
SIMMETRIA_1
 10
0
 20
0
 30
0
 70
128
 71
310
 72
111
 73
23
 74
309
 0
VERTEX
 8
SIMMETRIA_1
 10
0
 20
0
 30
0
 70
128
 71
309
 72
23
 73
2
 74
308
 0
VERTEX
 8
SIMMETRIA_1
 10
0
 20
0
 30
0
 70
128
 71
308
 72
2
 73
1
 74
307
 0
VERTEX
 8
SIMMETRIA_1
 10
0
 20
0
 30
0
 70
128
 71
307
 72
1
 73
118
 74
311
 0
VERTEX
 8
SIMMETRIA_1
 10
0
 20
0
 30
0
 70
128
 71
311
 72
118
 73
191
 74
312
 0
VERTEX
 8
SIMMETRIA_1
 10
0
 20
0
 30
0
 70
128
 71
312
 72
191
 73
192
 74
313
 0
VERTEX
 8
SIMMETRIA_1
 10
0
 20
0
 30
0
 70
128
 71
313
 72
192
 73
211
 74
314
 0
VERTEX
 8
SIMMETRIA_1
 10
0
 20
0
 30
0
 70
128
 71
314
 72
211
 73
111
 74
310
 0
VERTEX
 8
SIMMETRIA_1
 10
0
 20
0
 30
0
 70
128
 71
318
 72
310
 73
309
 74
317
 0
VERTEX
 8
SIMMETRIA_1
 10
0
 20
0
 30
0
 70
128
 71
317
 72
309
 73
308
 74
316
 0
VERTEX
 8
SIMMETRIA_1
 10
0
 20
0
 30
0
 70
128
 71
316
 72
308
 73
307
 74
315
 0
VERTEX
 8
SIMMETRIA_1
 10
0
 20
0
 30
0
 70
128
 71
315
 72
307
 73
311
 74
319
 0
VERTEX
 8
SIMMETRIA_1
 10
0
 20
0
 30
0
 70
128
 71
319
 72
311
 73
312
 74
320
 0
VERTEX
 8
SIMMETRIA_1
 10
0
 20
0
 30
0
 70
128
 71
320
 72
312
 73
313
 74
321
 0
VERTEX
 8
SIMMETRIA_1
 10
0
 20
0
 30
0
 70
128
 71
321
 72
313
 73
314
 74
322
 0
VERTEX
 8
SIMMETRIA_1
 10
0
 20
0
 30
0
 70
128
 71
322
 72
314
 73
310
 74
318
 0
SEQEND
 0
ENDSEC
 0
EOF
